<svg xmlns="http://www.w3.org/2000/svg" xmlns:xlink="http://www.w3.org/1999/xlink" width="1098" height="1098" viewBox="0 0 1098 1098">
  <defs>
    <clipPath id="clip-path">
      <rect id="Rettangolo_10" data-name="Rettangolo 10" width="53.66" height="64.348" fill="#fffb8a"/>
    </clipPath>
    <clipPath id="clip-path-2">
      <rect id="Rettangolo_11" data-name="Rettangolo 11" width="46.072" height="48.71" fill="#ff6f58"/>
    </clipPath>
    <clipPath id="clip-path-3">
      <rect id="Rettangolo_12" data-name="Rettangolo 12" width="44.13" height="64.59" fill="#fb82ff"/>
    </clipPath>
    <clipPath id="clip-path-4">
      <rect id="Rettangolo_13" data-name="Rettangolo 13" width="50.839" height="50.474" transform="translate(0 0)" fill="#4bffed"/>
    </clipPath>
  </defs>
  <g id="Raggruppa_21" data-name="Raggruppa 21" transform="translate(-411 -892)">
    <g id="Ellisse_3" data-name="Ellisse 3" transform="translate(411 892)" fill="none" stroke="#4a4a4a" stroke-width="5" opacity="0.5">
      <circle cx="549" cy="549" r="549" stroke="none"/>
      <circle cx="549" cy="549" r="546.5" fill="none"/>
    </g>
    <g id="Ellisse_4" data-name="Ellisse 4" transform="translate(423 904)" fill="none" stroke="#bebebe" stroke-width="2" opacity="0.5">
      <circle cx="537" cy="537" r="537" stroke="none"/>
      <circle cx="537" cy="537" r="536" fill="none"/>
    </g>
    <line id="Linea_6" data-name="Linea 6" y1="551" transform="translate(960.5 892.5)" fill="none" stroke="#4b4b4b" stroke-width="2"/>
    <line id="Linea_7" data-name="Linea 7" y1="551" transform="translate(771.547 925.729) rotate(-20)" fill="none" stroke="#4b4b4b" stroke-width="2"/>
    <line id="Linea_8" data-name="Linea 8" y1="551" transform="translate(605.824 1021.409) rotate(-40)" fill="none" stroke="#4b4b4b" stroke-width="2"/>
    <line id="Linea_9" data-name="Linea 9" y2="551" transform="translate(960 1443.5) rotate(-160)" fill="none" stroke="#4b4b4b" stroke-width="2"/>
    <line id="Linea_10" data-name="Linea 10" y2="551" transform="translate(960 1443.5) rotate(-140)" fill="none" stroke="#4b4b4b" stroke-width="2"/>
    <g id="Raggruppa_14" data-name="Raggruppa 14" transform="matrix(0.985, -0.174, 0.174, 0.985, 846.974, 935.047)">
      <g id="Raggruppa_13" data-name="Raggruppa 13" transform="translate(2.954 0.521)" clip-path="url(#clip-path)">
        <path id="Tracciato_31" data-name="Tracciato 31" d="M46.438,11.517a.931.931,0,0,0-.1.01c-.011-.005-.018-.015-.028-.021a8.4,8.4,0,0,0-2.913-.3,41.422,41.422,0,0,0-4.238.019.77.77,0,0,0-.243.061.7.7,0,0,0-.157-.031h-.423A59.128,59.128,0,0,0,28.707,5.73a9.979,9.979,0,0,0-1.985-.752c.405-1.353.862-2.683,1.4-3.991a.772.772,0,0,0-.738-.971Q23.221,0,19.06,0a.776.776,0,0,0-.74.971c.322,1.352.691,2.689,1.093,4.018-4.325.952-8.568,4.019-12.228,6.1a.672.672,0,0,0-.093.08c-2.058,0-4.114,0-6.172.012a.618.618,0,0,0-.46.058.8.8,0,0,0-.268,1.249l0,0a41.485,41.485,0,0,0,7.448,7.272c1.414,5.956,1.521,12.081,3.15,18-1.734,1.1-.982,4.2-.775,6.1a1.107,1.107,0,0,0,.043.193c0,.012-.013.02-.018.033-1.061,3.5-1.878,7.09-2.689,10.658-.392,1.732-2.223,6.287-1.505,8.1.752,1.9,3.9,1.477,5.542,1.464q6.5-.049,13-.165c4.229-.081,8.544.448,12.758.035,1.6-.158,2.41-.225,2.609-1.8.332-2.634-1.147-6.5-1.708-9.022a55.492,55.492,0,0,0-2.613-9.261.823.823,0,0,0,.093-.259c.149-1.662.71-5.428-.782-6.475a1.377,1.377,0,0,0-.221-.1c1.322-5.7,2.259-11.479,3.347-17.226a.805.805,0,0,0,.365.15,20.693,20.693,0,0,0,5.312.113c2.447.167,2.709.873,2.278,3.206q-.422,2.278-.864,4.55c-.5,2.56-.312,6.661-3.857,5.413a.775.775,0,0,0-.866.353c-1.018,1.673-3.382,4.952-1.746,6.774,2.738,3.05,7.89,1.632,9.775-1.4,3.871-6.218,10.752-26.362-1.83-27.668M21.572,6.224c2.066-.069,4-.26,5.857.582a58.623,58.623,0,0,1,8.3,4.445c-8.558-.005-17.117-.077-25.675-.09,3.552-2.175,7.67-4.806,11.516-4.937M33.883,38.611A14.751,14.751,0,0,1,34,41.185a18.411,18.411,0,0,0-.023,1.937c-.3.027-.706.105-.9.1-2.421-.068-4.9.2-7.321.249-2.977.057-5.955.076-8.933.019-1.353-.026-2.737,0-4.083-.139-1.548-.157-1.347.076-1.391-1.871a6.774,6.774,0,0,1,.057-1.976,1.876,1.876,0,0,0,.09-.389,1.094,1.094,0,0,0,.208-.078c.825-.4,2.383-.159,3.293-.2,3.012-.126,6.031-.176,9.045-.092,2.342-.177,4.709-.147,7.056-.091.379.01,2.729-.089,2.777-.045m-9.833-1.4c-1.341-.037-2.682-.044-4.023-.033C18.5,29.085,17.794,20.852,16.5,12.717q6.008.026,12.017.055c-1.844,8.035-2.039,16.319-3.609,24.393-.287.015-.574.026-.86.048M8.694,18.65a36.309,36.309,0,0,1-6.3-5.942q6.284-.028,12.569,0a.193.193,0,0,0,0,.025c1.311,8.134,2.013,16.372,3.517,24.475-.688.013-1.376.02-2.064.042a40.42,40.42,0,0,0-4.156.05c-1.636-5.971-1.726-12.166-3.186-18.173a.673.673,0,0,0-.381-.481m.485,44.083c-1.892-.16-1.5-.038-1.617-1.526-.211-2.62,1.294-6.206,1.9-8.745s1.221-5.1,1.966-7.616a28,28,0,0,0,5.408.177c.552.011,1.105.008,1.658.013C17.483,50.909,16.9,56.84,15.9,62.712q-1.459,0-2.919.014c-1.262.011-2.536.113-3.8.007m14.415-.111c-2.054.057-4.1.072-6.154.082.985-5.868,1.566-11.793,2.59-17.655q2.628.007,5.257-.035c.147,0,.311,0,.465,0,1.59,5.752,2.122,11.807,3.593,17.621-1.916-.038-3.832-.069-5.75-.016m14.628-.255c-.018.047-.021.067-.034.1a.533.533,0,0,0-.152.065c-.887.509-3.064.174-4.054.173-1.018,0-2.036-.019-3.052-.038-1.52-5.8-2.048-11.841-3.585-17.613a26.326,26.326,0,0,0,6.756-.241C36.207,49.83,37.137,55.671,38.008,61c.05.309.332,1.066.214,1.37M30.248,37.105c-1.257-.02-2.518-.028-3.777,0,1.513-8.059,1.72-16.332,3.612-24.328q3.86.015,7.719.011c-1.831,8.025-2.923,16.2-4.793,24.216-1.026-.016-2.172.112-2.761.1m7.988-18.468a.651.651,0,0,0-.105.008q.575-2.957,1.25-5.893c1.339-.064,2.677-.08,4.015-.012.73.036,1.9-.167,2.259.646a5.2,5.2,0,0,1-.06,2,10.2,10.2,0,0,1-.239,2.059c-.4,1.257-1.137,1.131-2.245,1.263a19.519,19.519,0,0,1-4.875-.069m9.442,18.342c-1.156,2.268-3.87,4.618-6.607,3.15-2.173-1.166-1-2.581-.311-4.146a3.269,3.269,0,0,1,.6-.913,6.118,6.118,0,0,0,1.722.5,2.457,2.457,0,0,0,2.273-1.8c1.238-2.742,1.3-6.6,1.88-9.554.234-1.206,1-3.092.259-4.221a2.287,2.287,0,0,0-1.113-.833c.685-.9.6-2.339.717-3.49a13.173,13.173,0,0,0,.135-2.47c5.2,1.212,5.255,8.418,4.358,12.46a49.06,49.06,0,0,1-3.918,11.318" transform="translate(0 0)" fill="#fffb8a"/>
        <path id="Tracciato_32" data-name="Tracciato 32" d="M11.682,30.334c.182.969,1.661.559,1.479-.408C12.61,26.989,12.289,24,11.61,21.09c-.224-.961-1.7-.554-1.479.408.679,2.914,1,5.9,1.551,8.836" transform="translate(0.967 1.964)" fill="#fffb8a"/>
        <path id="Tracciato_33" data-name="Tracciato 33" d="M10.319,17.928a.767.767,0,0,0,0,1.534.767.767,0,0,0,0-1.534" transform="translate(0.916 1.714)" fill="#fffb8a"/>
      </g>
    </g>
    <g id="Raggruppa_16" data-name="Raggruppa 16" transform="translate(683.609 1006.542) rotate(-30)">
      <g id="Raggruppa_15" data-name="Raggruppa 15" transform="translate(0 0)" clip-path="url(#clip-path-2)">
        <path id="Tracciato_34" data-name="Tracciato 34" d="M42.363,1.12C38.244-1.062,32.878-.067,30.681,4.195V4.2c-9.953-.327-19.987.132-29.889.4a.724.724,0,0,0-.709.709c-.113,2.913-.454,5.593,2.024,7.62,2.69,2.2,6.673,2.426,8.456,5.6,2.172,3.874,2.375,8.857,7.078,10.072.082,4.125.071,8.244,0,12.366C15.365,41,4.9,40.978,5.469,45.212c.446,3.321,9.455,3.3,11.73,3.429a49.064,49.064,0,0,0,10.793-.632c1.441-.24,5.443-.923,5.914-2.766,1.052-4.112-9.614-4.319-12.152-4.358.067-4.1.078-8.2,0-12.3a7.7,7.7,0,0,0,2.879-1.5C27.862,24.4,27,19.717,29.867,16.89c2.3-2.265,6.3-2.56,8.394-5.03a4.9,4.9,0,0,0,.914-1.9c1.856.705,3.787,1.186,5.634,1.928a.712.712,0,0,0,.872-.5c.8-3.92.671-8.161-3.319-10.275M8.516,5.621a270.657,270.657,0,0,1,29.558.4c.021.33.029.677.027,1.03-5.837-.613-11.885-.053-17.754-.3-6.32-.268-12.642.12-18.962.167A1.541,1.541,0,0,1,1.8,5.991c1.024-.824,5.255-.325,6.715-.37M20.293,43.98a.71.71,0,0,0,1.418,0c.014-.558.012-1.116.023-1.674a34.018,34.018,0,0,1,7.1.74c.592.138,2.37.377,2.752.91,1.123,1.569-1.147,2.032-2.068,2.31-3.814,1.152-8.358,1.175-12.318.956-2.522-.14-6.677-.041-8.937-1.378-2.382-1.409.82-2.4,2.323-2.747a33.247,33.247,0,0,1,7.04-.706c-.011.53-.009,1.059-.022,1.589a.71.71,0,0,0,1.418,0q.19-7.573.042-15.136a7.722,7.722,0,0,0,1.272,0q.146,7.571-.041,15.136M31.754,13.956c-3.853,2.029-4.519,4.314-5.825,8.379-1.238,3.855-5.244,6.44-9.1,4.471-3.384-1.728-3.361-5.987-5.044-8.989-1.766-3.148-4.311-3.292-7.347-5.059A5.684,5.684,0,0,1,1.492,9.571a6.692,6.692,0,0,1-.173-1.24c6.341-.045,12.687-.437,19.028-.167,5.841.248,11.848-.3,17.658.294a4.661,4.661,0,0,1-1.274,2.84c-1.319,1.21-3.419,1.837-4.978,2.659m7.685-8.6a.707.707,0,0,0-.167-.384.692.692,0,0,0-.1-.121l0,0a.694.694,0,0,0-.434-.2c-2.139-.18-4.286-.3-6.436-.386,2.2-3.245,7.059-3.8,10.228-1.352,2.382,1.836,2.4,4.652,1.934,7.347-1.661-.6-3.367-1.068-5.015-1.7a15.622,15.622,0,0,0,0-3.2" transform="translate(0 0)" fill="#ff6f58"/>
        <path id="Tracciato_35" data-name="Tracciato 35" d="M16.862,22.384c-1.271-.685-1.488-2.275-1.971-3.5-.33-.84-1.7-.474-1.368.377.631,1.61.967,3.458,2.622,4.351.8.434,1.521-.791.716-1.225" transform="translate(0.177 0.243)" fill="#ff6f58"/>
        <path id="Tracciato_36" data-name="Tracciato 36" d="M18.018,22.9a.71.71,0,0,0,0,1.418.71.71,0,0,0,0-1.418" transform="translate(0.228 0.302)" fill="#ff6f58"/>
      </g>
    </g>
    <g id="Raggruppa_18" data-name="Raggruppa 18" transform="matrix(0.985, 0.174, -0.174, 0.985, 1033.385, 926.437)">
      <g id="Raggruppa_17" data-name="Raggruppa 17" transform="translate(0 0)" clip-path="url(#clip-path-3)">
        <path id="Tracciato_37" data-name="Tracciato 37" d="M19.245,39.316c.922-1.158,2.392-2.787,2.325-4.377-.076-1.809-1.751-3.706-3-4.894C15.695,27.3,10.754,28.752,8.132,31.2c-1.242,1.261-2.3,2.541-2.086,4.417.19,1.651,1.474,5.086,2.906,6.079,1.234.857,4.194.726,5.608.663,2.178-.1,3.374-1.394,4.685-3.041m-3.32-8.959c-.547.678-1.083,1.366-1.636,2.038-.566.688-1.271,1.262-1.842,1.936a7.631,7.631,0,0,0-1.5.041c-1.018.068-2.04.1-3.055.2a4.919,4.919,0,0,1,1.312-2.3,7.651,7.651,0,0,1,6.721-1.914M12.048,40.7a5.259,5.259,0,0,1-4.277-4.6c1.315-.164,4.068-.77,4.964.194,1.057,1.137,1.479,2.938,2.384,4.218a5.951,5.951,0,0,1-3.07.188m4.423-.875c-.008-.012-.008-.023-.015-.035-1.026-1.423-1.529-3.337-2.694-4.66.52-.56,1.111-1.066,1.6-1.658.662-.8,1.294-1.631,1.955-2.436.008-.009.008-.018.015-.027.056.039.116.071.171.113.784.594,2.37,2.505,2.5,3.6.118,1.012-.826,2.158-1.358,2.9a8.994,8.994,0,0,1-2.17,2.206" transform="translate(0.5 2.371)" fill="#fb82ff"/>
        <path id="Tracciato_38" data-name="Tracciato 38" d="M26.976,44.925c-2.846-1.366-7.836-1.609-9.911,1.276-1.027,1.429-2.176,4.1-1.878,5.9.294,1.777,2.151,2.9,3.546,3.856,1.712,1.17,3.3,2.1,5.386,1.527,1.4-.387,4.2-1.073,5.162-2.283,1.113-1.4,1.309-5.092.962-6.777-.371-1.791-1.737-2.7-3.266-3.5m-.765,1.309a4.723,4.723,0,0,1,1.864,1.847c-.911.193-1.812.438-2.716.658a8.454,8.454,0,0,0-1.6.444c-.746-.461-1.573-.8-2.313-1.287s-1.487-1-2.232-1.5a7.87,7.87,0,0,1,7-.166m-9.542,5.6c-.223-1.121.671-3.429,1.383-4.407.018.014.026.032.047.045.866.568,1.712,1.164,2.58,1.731.658.43,1.385.746,2.062,1.134-.69,1.617-.605,3.559-1.168,5.217-.009.026,0,.045-.009.07a7.26,7.26,0,0,1-2.066-.98c-.8-.55-2.6-1.645-2.829-2.81M26.9,54.815a6.232,6.232,0,0,1-3.844,1.078c.494-1.522.376-3.331,1.025-4.781.355-.793,1.217-.8,1.995-.988.858-.212,1.714-.446,2.582-.623A4.791,4.791,0,0,1,26.9,54.815" transform="translate(1.257 3.649)" fill="#fb82ff"/>
        <path id="Tracciato_39" data-name="Tracciato 39" d="M24.63,33.85a2.728,2.728,0,0,0,2.983-2.22,2.508,2.508,0,0,0-1.826-2.917.66.66,0,0,0-.381-.034,2.915,2.915,0,0,0-3.239,2.083A2.824,2.824,0,0,0,24.63,33.85m-.947-2.9c.234-.718,1.072-.8,1.725-.757.524.214.842.545.722,1.148a1.2,1.2,0,0,1-1.3,1.009c-.609-.083-1.367-.735-1.15-1.4" transform="translate(1.837 2.38)" fill="#fb82ff"/>
        <path id="Tracciato_40" data-name="Tracciato 40" d="M29.584,36.333A.653.653,0,0,0,29.2,36.3a2.917,2.917,0,0,0-3.24,2.083,2.826,2.826,0,0,0,2.465,3.088,2.729,2.729,0,0,0,2.983-2.22,2.508,2.508,0,0,0-1.826-2.916m.344,2.623a1.2,1.2,0,0,1-1.3,1.009c-.609-.082-1.367-.735-1.15-1.4.234-.718,1.071-.8,1.725-.757.523.214.842.545.722,1.148" transform="translate(2.152 3.013)" fill="#fb82ff"/>
        <path id="Tracciato_41" data-name="Tracciato 41" d="M11.5,46.516a.65.65,0,0,0-.38-.035,2.915,2.915,0,0,0-3.24,2.083,2.826,2.826,0,0,0,2.464,3.088,2.73,2.73,0,0,0,2.984-2.22A2.508,2.508,0,0,0,11.5,46.516m.345,2.623a1.2,1.2,0,0,1-1.3,1.009c-.609-.082-1.367-.735-1.15-1.4.233-.718,1.07-.8,1.724-.757.524.214.842.545.723,1.148" transform="translate(0.651 3.858)" fill="#fb82ff"/>
        <path id="Tracciato_42" data-name="Tracciato 42" d="M40.319,12.494a.764.764,0,0,0,1.072,0c.9-1.061,1.816-2.119,2.631-3.25a.77.77,0,0,0-.118-.919c-2.447-2.875-9.733-13.3-12.922-5.458-1.083,2.662-1.55,5.755-2.277,8.528q-.489,1.873-.974,3.745c-8.989-.019-17.978-.244-26.971-.253a.751.751,0,0,0-.335.076A.612.612,0,0,0,0,15.643C1.052,26.963,2.356,38.265,4.161,49.49q.71,4.4,1.531,8.79c.289,1.534.259,4.158,1.36,5.364.839.919,2.3.742,3.42.775,3.005.093,6,.181,9.008.17,2.649-.011,5.3-.057,7.945-.08,1.492-.013,3.952.33,5.344-.393,2.956-1.537,2.6-7.355,3.045-10.174q3.014-19.007,6.025-38.016a.769.769,0,0,0-.731-.96c-2.506.081-5.011.122-7.517.147.632-2.445,1.317-4.876,2.085-7.282q2.333,2.318,4.643,4.661M26.48,26.751c.747-3.38,1.573-6.742,2.43-10.095q1.361,0,2.724,0c-.847,3.4-1.625,6.822-2.441,10.227-.9-.008-1.806-.052-2.713-.128M24.962,26.6c-1.99-.231-3.987-.574-5.985-.937-5.715-1.038-10.809-1.19-16.4.4q-.525-4.823-.981-9.651c8.585.022,17.169.224,25.752.249-.842,3.3-1.654,6.612-2.385,9.941m10.55,19.633q-.578,3.655-1.159,7.31C34,55.8,34.011,58.722,33.2,60.85c-1.015,2.647-3.4,2.123-5.769,2.143-2.424.021-4.849.062-7.274.076-2.283.013-4.566.005-6.849-.058a14.455,14.455,0,0,1-3.545-.141c-2.107-.654-1.894-1.338-2.221-3.005-.925-4.718-1.729-9.459-2.45-14.214-.912-6.007-1.671-12.035-2.344-18.073,7.5-2.181,13.879-.481,21.352.545A29.005,29.005,0,0,0,38.6,26.737q-1.543,9.746-3.089,19.492m4.711-29.724q-.676,4.255-1.349,8.51a21.974,21.974,0,0,1-8.115,1.832c.812-3.4,1.593-6.818,2.444-10.213q3.509-.032,7.02-.13m-8.2-1.374q-1.361.008-2.723.009.372-1.436.746-2.871c.714-2.732,1.019-6.674,2.476-9.14,1.9-3.225,4.17-.474,5.829,1.261.855.892,4.044,3.594,3.954,4.669-.045.551-1.247,1.291-1.531,1.822-.037-.065-.062-.118-.112-.2-1.091-1.764-3.312-3.343-4.792-4.8a.767.767,0,0,0-1.267.335c-.979,2.938-1.811,5.92-2.58,8.919" transform="translate(0 0)" fill="#fb82ff"/>
        <path id="Tracciato_43" data-name="Tracciato 43" d="M3.119,19.922c.211.921.365,1.853.521,2.783.161.961,1.622.553,1.462-.4-.175-1.047-.349-2.1-.6-3.128-.038-.153-.218-.538-.18-.684l-.092-.1.425-.034a10.188,10.188,0,0,1,1.761.086c.966.119.957-1.4,0-1.516-1.06-.13-3.349-.474-3.638,1.038a5.113,5.113,0,0,0,.343,1.955" transform="translate(0.228 1.395)" fill="#fb82ff"/>
        <path id="Tracciato_44" data-name="Tracciato 44" d="M8.36,18.618a.758.758,0,0,0,0-1.515.758.758,0,0,0,0,1.515" transform="translate(0.633 1.42)" fill="#fb82ff"/>
      </g>
    </g>
    <g id="Raggruppa_20" data-name="Raggruppa 20" transform="translate(1202.186 981.55) rotate(30)">
      <g id="Raggruppa_19" data-name="Raggruppa 19" clip-path="url(#clip-path-4)">
        <path id="Tracciato_45" data-name="Tracciato 45" d="M50.065,2.038c-.013-.017-.03-.023-.044-.039a.7.7,0,0,0-.065-.1C48.447.321,44.264.565,42.322.427,36.647.021,30.939-.03,25.251.013,19.639.055,14.008.19,8.415.68,6.5.848,1.884.661.477,2.344-.159,3.105.017,4.383.037,5.3c.055,2.528.342,5.06.607,7.572.789,7.472,1.815,14.922,2.873,22.361.491,3.456,1,6.908,1.519,10.361.527,3.537,1.493,3.869,4.945,4.227a144.031,144.031,0,0,0,17.416.622c2.69-.048,5.378-.147,8.065-.277,2.385-.115,5.787.3,8.037-.5,3.3-1.18,3.5-7.588,3.995-10.5,1-5.924,1.369-11.927,1.975-17.9.391-3.862.868-7.7,1.06-11.577.1-1.962.868-5.907-.464-7.644m-.936,7.644c-.126,2.542-.337,5.078-.619,7.607-.491,4.4-.864,8.809-1.3,13.214-.478,4.786-.672,10.8-2.615,15.283-1.358,3.132-3.386,2.67-6.457,2.839-2.455.135-4.912.252-7.37.332-4.931.159-9.87.181-14.8-.077-2.216-.116-4.442-.266-6.646-.529-2.626-.314-2.66-1.318-2.989-3.494q-.685-4.545-1.336-9.1C4.018,28.925,3.08,22.082,2.3,15.221c-.268-2.365-.524-4.732-.7-7.1C1.529,7.2.92,4.291,1.477,3.448,2.433,2,7.363,2.166,8.961,2.034c4.579-.377,9.18-.521,13.772-.592,5.49-.086,10.988-.056,16.473.2,2.144.1,4.3.218,6.431.483.763.1,2.637.115,3.288.728.945,1.46.279,5.309.2,6.825" fill="#4bffed"/>
        <path id="Tracciato_46" data-name="Tracciato 46" d="M22.653,19.138c-3.248-3.521-8.922-1.892-11.958,1.149C9.116,22.006,8.037,23.6,8.455,26c.329,1.9,1.484,5.183,2.916,6.509,1.38,1.277,4.767,1.15,6.55,1.066,2.4-.113,3.658-1.573,5.057-3.42,1.09-1.439,2.847-3.481,2.79-5.416-.06-2.011-1.821-4.2-3.115-5.6M19.8,18.976c-.75.982-1.467,1.991-2.223,2.97-.621.8-1.388,1.483-2.021,2.27a6.408,6.408,0,0,0-1.578.017c-1.26.095-2.529.13-3.785.271a6.216,6.216,0,0,1,1.488-3.227c1.995-2,5.4-3.278,8.119-2.3m-5.259,12.99c-2.861-.549-4.389-3.292-4.452-6.057,1.647-.2,4.864-.958,5.939.435,1.163,1.506,1.634,3.548,2.7,5.133a.662.662,0,0,0,.128.126,7.249,7.249,0,0,1-4.318.363m8.125-3.779a10.231,10.231,0,0,1-2.643,2.786.67.67,0,0,0-.083-.2c-1.2-1.781-1.735-4.057-3.09-5.726-.033-.041-.066-.069-.1-.106.637-.8,1.428-1.495,2.052-2.309.761-.993,1.488-2.011,2.248-3a5.254,5.254,0,0,1,.608.5c.888.859,2.448,2.956,2.634,4.25.194,1.353-.924,2.766-1.627,3.809" fill="#4bffed"/>
        <path id="Tracciato_47" data-name="Tracciato 47" d="M38.69,26.26c-3.351-1.726-9.115-1.812-11.31,1.823-1.108,1.835-2.364,4.931-1.872,7.1.41,1.81,2.455,3.109,3.857,4.145,1.905,1.406,3.7,2.614,6.1,1.91,1.646-.483,4.746-1.355,5.833-2.778,1.19-1.558,1.4-6.173,1.056-7.987-.4-2.11-1.885-3.213-3.664-4.216m-.707,1.208a5.439,5.439,0,0,1,2.527,2.583c-.008,0-.014,0-.022,0-1.325.274-2.621.684-3.932,1.016a14.93,14.93,0,0,0-1.638.352c-.825-.533-1.737-.946-2.548-1.515-.926-.65-1.831-1.329-2.753-1.983,2.283-1.776,5.839-1.755,8.366-.454m-11.15,7.069c-.2-1.306.727-3.8,1.32-4.9a5.506,5.506,0,0,1,.483-.731.683.683,0,0,0,.079.083c.991.7,1.957,1.428,2.948,2.123.744.522,1.573.911,2.343,1.382-.263.893-.334,2.071-.494,2.944a30.849,30.849,0,0,1-.75,3.722.621.621,0,0,0,.014.422,7.666,7.666,0,0,1-2.321-1.177c-1.16-.829-3.38-2.285-3.622-3.869M40.3,37.227c-.677,1.07-3.185,2.028-4.415,2.355a6.082,6.082,0,0,1-1.915.2.726.726,0,0,0,.14-.253,37.175,37.175,0,0,0,1.267-6.212c.093-.731-.091-.447.516-.672.423-.156.944-.208,1.382-.322,1.192-.31,2.376-.675,3.583-.926.013,0,.02-.01.032-.013a9.036,9.036,0,0,1,.129,1.231c.041,1.151-.064,3.573-.719,4.608" fill="#4bffed"/>
        <path id="Tracciato_48" data-name="Tracciato 48" d="M5.023,12.217Q4.729,10.56,4.436,8.9c-.243-1.374-.759-3.28,1.289-3.194.9.038.9-1.362,0-1.4-4.593-.193-2.514,5.67-2.052,8.281.157.886,1.506.51,1.35-.372" fill="#4bffed"/>
        <path id="Tracciato_49" data-name="Tracciato 49" d="M8.339,5.528a.7.7,0,0,0,0-1.4.7.7,0,0,0,0,1.4" fill="#4bffed"/>
        <path id="Tracciato_50" data-name="Tracciato 50" d="M42.423,14.956a40.891,40.891,0,0,1-12.367.314c-4.376-.687-8.738-1.942-13.187-2.06a55.323,55.323,0,0,0-7.991.477c-1.249.15-3.261.048-4.2.963-1.111,1.082-.534,2.685-.373,4.019.338,2.8.521,5.623.826,8.43.6,5.54,1.87,10.983,2.877,16.458a.568.568,0,0,0,.607.5.676.676,0,0,0,.068.017c11.426.54,22.956.5,34.389.144a.71.71,0,0,0,.675-.514c1.455-8.074,2.223-16.44,3.069-24.61.424-4.094-.261-4.7-4.391-4.135m2.991,4.135c-.374,3.615-.913,7.218-1.334,10.829-.322,2.766-.593,5.537-.922,8.3-.085.714-.279,4.367-.723,4.606a7.834,7.834,0,0,1-2.515-.008c-10.237-.067-20.419.324-30.655-.126-1.257-6.816-2.54-13.522-3.2-20.434-.125-1.322-.781-3.464-.511-4.744.559-2.652,2.376-2.338,4.435-2.55a43.252,43.252,0,0,1,8.654-.23c4.962.491,9.781,2.005,14.763,2.336a29.015,29.015,0,0,0,6.432-.271,24.194,24.194,0,0,1,3.438-.554c2.225-.011,2.328.959,2.133,2.845" fill="#4bffed"/>
      </g>
    </g>
  </g>
</svg>