<svg xmlns="http://www.w3.org/2000/svg" xmlns:xlink="http://www.w3.org/1999/xlink" width="1098" height="1098" viewBox="0 0 1098 1098">
  <defs>
    <clipPath id="clip-path">
      <rect id="Rettangolo_2" data-name="Rettangolo 2" width="50.95" height="50.462" transform="translate(0 0)" fill="none" stroke="#78ff81" stroke-width="1"/>
    </clipPath>
    <clipPath id="clip-path-2">
      <rect id="Rettangolo_3" data-name="Rettangolo 3" width="47.731" height="51.348" transform="translate(0 0)" fill="none" stroke="#d970ff" stroke-width="1"/>
    </clipPath>
    <clipPath id="clip-path-3">
      <rect id="Rettangolo_4" data-name="Rettangolo 4" width="45.162" height="58.826" transform="translate(0 0)" fill="none" stroke="#ff6b6b" stroke-width="1"/>
    </clipPath>
    <clipPath id="clip-path-4">
      <rect id="Rettangolo_5" data-name="Rettangolo 5" width="28.16" height="55.345" transform="translate(0 0)" fill="none" stroke="#3ba4ff" stroke-width="1"/>
    </clipPath>
  </defs>
  <g id="Raggruppa_22" data-name="Raggruppa 22" transform="translate(-411 910)">
    <g id="Ellisse_1" data-name="Ellisse 1" transform="translate(411 -910)" fill="none" stroke="#403f3f" stroke-width="5" opacity="0.5">
      <circle cx="549" cy="549" r="549" stroke="none"/>
      <circle cx="549" cy="549" r="546.5" fill="none"/>
    </g>
    <line id="Linea_1" data-name="Linea 1" y2="138" transform="translate(960.5 49.5)" fill="none" stroke="#3e3e3e" stroke-width="2"/>
    <line id="Linea_2" data-name="Linea 2" x1="39.953" y2="108.771" transform="translate(771.547 45.5)" fill="none" stroke="#3e3e3e" stroke-width="2"/>
    <line id="Linea_3" data-name="Linea 3" y2="551" transform="translate(960 -363.5) rotate(40)" fill="none" stroke="#3e3e3e" stroke-width="2"/>
<line xmlns="http://www.w3.org/2000/svg" id="Linea_4" data-name="Linea 4" x2="39.953" y2="108.771" transform="translate(1112.5 44)" fill="none" stroke="#3e3e3e" stroke-width="2"/>    <line id="Linea_5" data-name="Linea 5" y1="551" transform="translate(1314.176 58.59) rotate(140)" fill="none" stroke="#3e3e3e" stroke-width="2"/>
    <g id="Ellisse_2" data-name="Ellisse 2" transform="translate(423 -898)" fill="none" stroke="#c9c9c9" stroke-width="2" opacity="0.5">
      <circle cx="537" cy="537" r="537" stroke="none"/>
      <circle cx="537" cy="537" r="536" fill="none"/>
    </g>
    <g id="Raggruppa_2" data-name="Raggruppa 2" transform="matrix(0.985, 0.174, -0.174, 0.985, 852.768, 96.076)">
      <g id="Raggruppa_1" data-name="Raggruppa 1" clip-path="url(#clip-path)">
        <path id="Tracciato_1" data-name="Tracciato 1" d="M50.25,3.653c-3.326-.06-6.655-.09-9.984-.108C40.932,2.7,41.6,1.864,42.245,1c.54-.721-.674-1.42-1.209-.706-.819,1.094-1.667,2.167-2.521,3.235-12.587-.046-25.191.132-37.771.119a.627.627,0,0,0-.278.042.637.637,0,0,0-.444.514.645.645,0,0,0,.1.544.614.614,0,0,0,.052.086l.006.009c4.475,4.827,9.168,9.257,13.9,13.809,2.011,1.935,3.977,3.936,5.958,5.9.819.813,2.067,2.538,3.368,3.667.1,4.868.086,9.733,0,14.6-2.252.028-12.574.007-12.014,4.185.44,3.279,9.332,3.26,11.577,3.384a48.427,48.427,0,0,0,10.653-.624c1.422-.237,5.372-.911,5.837-2.73,1.038-4.059-9.494-4.263-12-4.3.08-4.8.093-9.592-.005-14.391.475-.415.906-.876,1.268-1.2,2.532-2.259,4.927-4.668,7.281-7.109,4.9-5.079,9.6-10.349,14.736-15.192a.708.708,0,0,0-.495-1.195M2.286,5.051c11.694,0,23.407-.152,35.107-.121q-1.746,2.151-3.5,4.3c-9.26-.035-18.53-.661-27.789-.153Q4.181,7.087,2.286,5.051M26.025,45.794a.7.7,0,0,0,1.4,0c.013-.551.011-1.1.022-1.652a33.578,33.578,0,0,1,7.007.73c.584.136,2.339.372,2.716.9,1.108,1.549-1.132,2.006-2.041,2.281-3.765,1.136-8.25,1.159-12.158.943-2.489-.138-6.591-.04-8.821-1.36-2.351-1.391.809-2.369,2.293-2.711a32.805,32.805,0,0,1,6.947-.7c-.011.523-.008,1.045-.021,1.568a.7.7,0,0,0,1.4,0q.2-8.329.043-16.655a2.159,2.159,0,0,0,.6.151,1.769,1.769,0,0,0,.66-.089q.15,8.3-.043,16.593m5.149-22.859Q29.9,24.175,28.6,25.379c-1.691,1.548-2.768,2.287-4.876.885-1.791-1.191-3.479-3.419-5.044-4.932-1.691-1.634-3.253-3.379-5.013-4.94C11.5,14.468,9.429,12.468,7.408,10.42c8.451-.369,16.91.134,25.361.207-.759.948-1.494,1.913-2.226,2.88a4.76,4.76,0,0,0-6.1,2.16,4.145,4.145,0,0,0,1.215,4.8c-.615.88-1.319,1.69-1.913,2.587-.5.753.713,1.455,1.209.706.574-.867,1.251-1.656,1.852-2.5.081.04.161.082.244.117a4.668,4.668,0,0,0,5.529-1.78A3.928,3.928,0,0,0,31.76,14.2q1.365-1.8,2.784-3.569c2.894,0,5.787-.062,8.678-.236-2.038,2.129-4.048,4.286-6.076,6.425-1.96,2.067-3.933,4.123-5.972,6.112M27.4,20c-1.167-.606-2.286-2.125-1.812-3.461a3.382,3.382,0,0,1,4.081-1.883c-.068.092-.141.18-.208.273-.531.729.683,1.428,1.208.706.087-.119.181-.233.269-.351,2.637,1.532-.518,6.282-3.538,4.716M44.672,8.906c-3,.222-5.994.309-8.993.325,1.166-1.429,2.335-2.857,3.492-4.293q4.693.021,9.382.092Q46.58,6.938,44.672,8.906" fill="#333" stroke="#78ff81" stroke-width="1"/>
      </g>
    </g>
    <g id="Raggruppa_4" data-name="Raggruppa 4" transform="matrix(0.985, -0.174, 0.174, 0.985, 1024.265, 104.051)">
      <g id="Raggruppa_3" data-name="Raggruppa 3" clip-path="url(#clip-path-2)">
        <path id="Tracciato_2" data-name="Tracciato 2" d="M47.65,15.613a.7.7,0,0,0-.072-.235q-4.129-7.644-8.7-15.03a.715.715,0,0,0-.191-.2.72.72,0,0,0-.07-.042.786.786,0,0,0-.089-.051.578.578,0,0,0-.41-.032c-.01,0-.02,0-.03,0Q28.973,2.341,19.753,4.2a.573.573,0,0,0-.462.4.657.657,0,0,0,.146,1.044c4.06,2.275,8.06,4.37,12.169,6.172-.529,1.26-1.008,2.539-1.471,3.824A44.476,44.476,0,0,0,17.6,15.411c-.173-.71-.346-1.42-.534-2.127-.695-2.621-1.227-6.029-2.985-8.2-2.949-3.646-9.934-.724-13.571.45a.718.718,0,0,0-.489.861c.169.8.347,1.593.545,2.384a.607.607,0,0,0,.462.467.656.656,0,0,0,.4.022C3.3,8.779,5.176,8.286,7.061,7.85c2.289-.529,3.051-.366,4.3,1.807a14.722,14.722,0,0,1,.893,2.968q.515,1.707,1.03,3.413c-2.582.481-5.935,1.08-7.528,3.217a3.528,3.528,0,0,0-.621,1.326,22.113,22.113,0,0,0-2.289,9.144l-.639-.1a.724.724,0,0,0-.861.489.705.705,0,0,0,.489.861l.968.159a25.459,25.459,0,0,0,.674,6.124,3.378,3.378,0,0,0-1.1.5c-.728.518-.029,1.733.707,1.209A2.418,2.418,0,0,1,3.86,38.6c.134.406.277.8.437,1.172a15.028,15.028,0,0,0,3.21,4.7,3.538,3.538,0,0,0-.265.37c-.471.771.739,1.475,1.209.706.028-.044.061-.08.09-.12a20.446,20.446,0,0,0,5.874,3.433c-.07.225-.141.449-.212.674-.272.861,1.079,1.23,1.35.372.061-.192.121-.385.182-.577a26.027,26.027,0,0,0,5.592,1.144,19.046,19.046,0,0,0,5.2-.237c.046.2.093.407.139.61.2.878,1.551.506,1.35-.372l-.123-.541a19.153,19.153,0,0,0,6.309-3l.337.336a.7.7,0,0,0,.989-.99c-.07-.07-.14-.141-.211-.211a21.248,21.248,0,0,0,4.112-4.585c.415-.625.782-1.26,1.124-1.9a6.159,6.159,0,0,0,1.032.746.7.7,0,0,0,.707-1.209,4.767,4.767,0,0,1-1.011-.751.574.574,0,0,0-.1-.062,18.856,18.856,0,0,0,1.535-10.832,3.163,3.163,0,0,0,.773-.091c.875-.212.5-1.562-.372-1.35a1.562,1.562,0,0,1-.68.011,21.385,21.385,0,0,0-2.1-5.406,3.133,3.133,0,0,0-.649-1.464c-1.512-1.985-5.673-2.738-8.187-3.265.432-1.189.88-2.373,1.375-3.54A69.411,69.411,0,0,0,46.858,16.68a.745.745,0,0,0,.792-1.067M29.624,17.062q-.29.808-.584,1.616c-.513-.062-1.007-.111-1.447-.163a41.752,41.752,0,0,0-9.242.035q-.21-.88-.419-1.763a46.586,46.586,0,0,1,11.692.275m.307,3.183c1.162.2,2.524.556,2.671,1.35.2,1.075-3.039,1.93-4.125,2.181.53-1.16,1.008-2.34,1.454-3.531M26.82,24.038a.166.166,0,0,0-.006.021,32.063,32.063,0,0,1-7.022-.078c-.414-1.346-.767-2.707-1.1-4.072a39.206,39.206,0,0,1,9.842.131c-.517,1.353-1.068,2.693-1.71,4M12.064,7.446c-1.947-3.005-7.291-.684-10.31.264-.08-.342-.159-.685-.234-1.028C2.729,6.3,3.944,5.931,5.182,5.653a22.008,22.008,0,0,1,4.872-.838c3.37.286,3.852,2.659,4.593,5.093,1.4,4.589,2.265,9.311,3.635,13.9-.415-.053-.831-.112-1.245-.179,0-.008,0-.014,0-.022q-1.246-4.179-2.518-8.351c-.72-2.377-1.1-5.721-2.453-7.814m3.422,15.878c-.288-.067-.577-.134-.861-.214-.494-.14-1.375-.236-1.727-.613-1.062-1.137.576-1.67,1.75-1.948.279.925.561,1.849.838,2.775M38.511,40.341c-3.9,6.075-10.394,9.541-17.65,8.662-6.27-.76-12.7-3.779-15.273-9.875C3.832,34.977,3.8,27.954,5.509,23.181A6.24,6.24,0,0,0,7.183,25.23c5.22,4.207,14.972,4.017,21.145,3.195,2.12-.282,9.383-2.6,11.472-5.74a17.75,17.75,0,0,1-1.289,17.656M34.2,18.13c1.025.318,3.51.817,4.119,1.763.7,1.091-.3,2.612-1.305,3.472a18.233,18.233,0,0,1-7.52,3.479,38.153,38.153,0,0,1-17.026-.655c-2.414-.653-7.987-3.089-5.275-6.425,1.248-1.535,4.383-2.014,6.5-2.386q.276.909.549,1.819c-1.482.308-3.724.856-3.8,2.461-.063,1.325,1.541,2,2.527,2.4C17.25,25.791,23.692,26.1,28.154,25.28c1.878-.345,8.649-2.2,5.566-5.026a6.681,6.681,0,0,0-3.291-1.365q.283-.783.563-1.566c1.071.22,2.14.475,3.208.807m11.578-3.123A65.547,65.547,0,0,1,38.74,13.07c.025-3.356.275-6.729.271-10.09,1.2,1.427,2.049,3.665,2.793,4.943,1.362,2.341,2.679,4.706,3.974,7.084M28.173,8.67C31.364,6.522,34.381,4.107,37.6,2c.065,3.528-.2,7.072-.245,10.6A89.315,89.315,0,0,1,28.173,8.67m5.074-6c.436-.1,1.029-.327,1.64-.536-2.727,1.931-5.356,4.013-8.154,5.835-1.712-.866-3.416-1.784-5.124-2.726,2.357-.483,4.711-.979,7.058-1.509q2.293-.516,4.58-1.064" fill="#333" stroke="#d970ff" stroke-width="1"/>
        <path id="Tracciato_3" data-name="Tracciato 3" d="M17.69,32.873c-.359.36-.715.72-1.073,1.079a.7.7,0,0,0,.99.991c.356-.36.715-.72,1.073-1.08a.7.7,0,0,0-.99-.99" fill="#333" stroke="#d970ff" stroke-width="1"/>
        <path id="Tracciato_4" data-name="Tracciato 4" d="M9.857,32.557h.987a.7.7,0,0,0,0-1.4H9.857a.7.7,0,0,0,0,1.4" fill="#333" stroke="#d970ff" stroke-width="1"/>
        <path id="Tracciato_5" data-name="Tracciato 5" d="M10.972,37.546,9.351,38.885c-.695.574.3,1.56.991.99l1.62-1.339c.694-.575-.3-1.56-.99-.99" fill="#333" stroke="#d970ff" stroke-width="1"/>
        <path id="Tracciato_6" data-name="Tracciato 6" d="M12.939,41.177l-.36,1.435a.7.7,0,0,0,1.35.372l.36-1.435a.7.7,0,0,0-1.35-.372" fill="#333" stroke="#d970ff" stroke-width="1"/>
        <path id="Tracciato_7" data-name="Tracciato 7" d="M19.488,43.693a.7.7,0,0,0-.7-.7.716.716,0,0,0-.7.7,7.273,7.273,0,0,0,.072,2.164c.154.885,1.5.51,1.35-.373a6.074,6.074,0,0,1-.022-1.791" fill="#333" stroke="#d970ff" stroke-width="1"/>
        <path id="Tracciato_8" data-name="Tracciato 8" d="M29.164,42.8c-.2-.879-1.547-.507-1.35.372a9.05,9.05,0,0,0,.732,2.042c.4.808,1.606.1,1.209-.707a7.52,7.52,0,0,1-.591-1.707" fill="#333" stroke="#d970ff" stroke-width="1"/>
        <path id="Tracciato_9" data-name="Tracciato 9" d="M34.88,39.862l-.986-.451c-.814-.372-1.526.834-.706,1.209l.985.451c.813.372,1.525-.834.707-1.209" fill="#333" stroke="#d970ff" stroke-width="1"/>
        <path id="Tracciato_10" data-name="Tracciato 10" d="M37.754,33.3a6.791,6.791,0,0,0-1.716.284c-.86.262-.493,1.614.372,1.35a5.292,5.292,0,0,1,1.344-.234c.9-.036.9-1.436,0-1.4" fill="#333" stroke="#d970ff" stroke-width="1"/>
        <path id="Tracciato_11" data-name="Tracciato 11" d="M38.735,28.4l-.987.27a.7.7,0,0,0,.373,1.35l.986-.27a.7.7,0,0,0-.372-1.35" fill="#333" stroke="#d970ff" stroke-width="1"/>
        <path id="Tracciato_12" data-name="Tracciato 12" d="M24.777,37.863a.705.705,0,0,0-.861-.489.717.717,0,0,0-.489.861,7.9,7.9,0,0,0,.382,1.521c.3.841,1.656.478,1.35-.373a7.87,7.87,0,0,1-.382-1.52" fill="#333" stroke="#d970ff" stroke-width="1"/>
        <path id="Tracciato_13" data-name="Tracciato 13" d="M27.078,32.481a5.515,5.515,0,0,1-1.611-.111c-.878-.2-1.253,1.153-.372,1.35a6.849,6.849,0,0,0,1.983.161c.894-.062.9-1.462,0-1.4" fill="#333" stroke="#d970ff" stroke-width="1"/>
        <path id="Tracciato_14" data-name="Tracciato 14" d="M31.834,35.909a3.921,3.921,0,0,1-1.61-.236c-.849-.306-1.214,1.046-.372,1.35a4.969,4.969,0,0,0,1.982.286c.9-.052.9-1.452,0-1.4" fill="#333" stroke="#d970ff" stroke-width="1"/>
        <path id="Tracciato_15" data-name="Tracciato 15" d="M31.933,32.45l1.158-.383c.852-.281.487-1.633-.372-1.35l-1.158.383c-.852.281-.487,1.634.372,1.35" fill="#333" stroke="#d970ff" stroke-width="1"/>
      </g>
    </g>
    <g id="Raggruppa_6" data-name="Raggruppa 6" transform="translate(1177.319 44.818) rotate(-30)">
      <g id="Raggruppa_5" data-name="Raggruppa 5" clip-path="url(#clip-path-3)">
        <path id="Tracciato_16" data-name="Tracciato 16" d="M42.325,18.564c-3.379-3.948-6.924-3.712-10.917-1.614a10.236,10.236,0,0,0-.24-2.507,3.645,3.645,0,0,0-.73-1.47c4.29-3.438.357-10.984-4.833-9.262a5.957,5.957,0,0,0-4.371-3.4c-2.324-.415-3.977.771-5.626,2.154C12.157-2.617,2.835.807,3.129,6.834c-3.023.006-4.191,3.109-1.994,4.96A2.684,2.684,0,0,0,.067,13.646a.346.346,0,0,0,0,.046.62.62,0,0,0-.027.14C.128,27.156-.2,40.508.309,53.825c.042,1.076-.148,2.437.716,3.254,1.356,1.281,4.614,1.089,6.366,1.275a85.083,85.083,0,0,0,19.76-.22c4.4-.563,3.4-3.066,3.517-7.145q.009-.313.02-.628a9.308,9.308,0,0,0,8.434.18c5.021-2.951,5.481-10.016,5.8-15.187.3-4.962.907-12.7-2.6-16.79M1.442,13.931c.633-2.511,12.166-1.383,14.46-1.374,3.518.014,8.861-.855,12.144.529,2.111.889,1.994,3.58,1.808,5.946a109.412,109.412,0,0,0-16.5-.423c-3.958.192-7.959-.35-11.9.08,0-1.586,0-3.172-.012-4.758M31.135,26.054a.6.6,0,0,0,.453-.1c1.837-1.216,4.927-1.041,5.729,1.168a17.457,17.457,0,0,1,.473,4.955,41.773,41.773,0,0,1-.586,6.146c-.243,1.755-.455,3.918-2.422,4.485a5.358,5.358,0,0,1-3.849-.4c.109-3.64.2-7.28.215-10.92.007-1.778,0-3.556-.013-5.334M3.734,8.273a.71.71,0,0,0,.861-.861C3.457,2.029,12.4-1,14.824,3.887a.708.708,0,0,0,1.1.142c1.189-1.011,2.522-2.355,4.2-2.43,1.784-.08,4.058,1.412,4.335,3.245a.707.707,0,0,0,1.028.418c4.331-2.234,7.139,4.371,3.784,6.8a10.924,10.924,0,0,0-3.937-.749c-5.181-.363-10.445-.174-15.634-.121-1.717.018-4.76-.568-6.976-.085-.977-.833-1.064-3.253,1.012-2.838m24.584,48.3c-.866.684-4.65.545-5.924.636q-2.383.173-4.775.211a84.1,84.1,0,0,1-9.549-.394c-1.567-.154-3.927.1-5.23-.684-1.661-1-1.145-2.953-1.185-4.589C1.4,41.2,1.471,30.638,1.458,20.08c4.325-.548,8.879.054,13.233-.138a103.2,103.2,0,0,1,15.061.48c-.015.247-.026.488-.027.712-.015,2.984.025,5.968.024,8.952,0,6.061-.233,12.12-.4,18.178-.06,2.141.79,6.873-1.027,8.309M43.586,34.057c-.16,4.079-.318,8.947-2.506,12.518-1.968,3.213-7.163,4.873-10.343,2.142q.075-2.448.15-4.9c1.913.742,4.673.716,6.212-.6a5.036,5.036,0,0,0,1.38-3.031,47.069,47.069,0,0,0,.741-7.525c.017-2.057.209-6.209-1.4-7.764-1.583-1.533-4.865-1.334-6.692-.288,0-.738-.008-1.476-.008-2.214,0-1.133.143-2.479.229-3.825,2.119-1.242,4.211-2.406,6.686-1.469a7.967,7.967,0,0,1,4.381,4.467c1.484,3.671,1.322,8.575,1.168,12.484" fill="#333" stroke="#ff6b6b" stroke-width="1"/>
        <path id="Tracciato_17" data-name="Tracciato 17" d="M15.2,22.811c-1.93.748-1.79,4.69-1.919,6.227-.316,3.752-.559,7.517-.584,11.283,0,1.739-.876,14.581,3.4,12.909,1.631-.637,1.3-3.312,1.364-4.655.226-4.42.455-8.841.639-13.263.059-1.423,1-14.014-2.9-12.5m1.472,13.131c-.2,4.49.159,9.537-.673,13.947a1.536,1.536,0,0,1-.431,1.4q-.489,1.26-.634-.208c-.59-.9-.588-3.148-.666-4.016-.2-2.241-.17-4.5-.171-6.749.027-4.1.254-8.231.673-12.311.091-.883-.21-3.341,1.346-2.984.5.114.589,3.011.633,3.542a58.538,58.538,0,0,1-.077,7.374" fill="#333" stroke="#ff6b6b" stroke-width="1"/>
        <path id="Tracciato_18" data-name="Tracciato 18" d="M6.738,22.811c-1.929.748-1.789,4.69-1.918,6.227-.316,3.752-.56,7.517-.584,11.283,0,1.739-.876,14.581,3.4,12.909,1.631-.637,1.3-3.312,1.364-4.655.226-4.42.455-8.841.639-13.263.059-1.423,1-14.014-2.9-12.5M8.211,35.942c-.2,4.49.159,9.537-.673,13.947a1.536,1.536,0,0,1-.431,1.4q-.489,1.26-.634-.208c-.59-.9-.588-3.148-.666-4.016-.2-2.241-.17-4.5-.171-6.749.027-4.1.253-8.231.673-12.311.091-.883-.21-3.341,1.346-2.984.5.114.589,3.011.633,3.542a58.538,58.538,0,0,1-.077,7.374" fill="#333" stroke="#ff6b6b" stroke-width="1"/>
        <path id="Tracciato_19" data-name="Tracciato 19" d="M23.666,23.324c-1.929.748-1.789,4.69-1.918,6.227-.316,3.752-.56,7.517-.584,11.283,0,1.739-.876,14.581,3.4,12.909,1.631-.637,1.3-3.312,1.364-4.655.226-4.42.455-8.841.638-13.263.06-1.423,1-14.014-2.9-12.5m1.473,13.131c-.2,4.49.159,9.537-.674,13.947a1.533,1.533,0,0,1-.43,1.4q-.489,1.26-.635-.208c-.589-.9-.587-3.148-.665-4.015-.2-2.242-.17-4.5-.171-6.75.027-4.1.253-8.231.673-12.311.091-.883-.21-3.341,1.346-2.984.5.114.589,3.011.633,3.542a58.538,58.538,0,0,1-.077,7.374" fill="#333" stroke="#ff6b6b" stroke-width="1"/>
        <path id="Tracciato_20" data-name="Tracciato 20" d="M37.053,18.333a.7.7,0,0,0-.372,1.35c2.238.651,3.021,2.686,3.419,4.762.169.884,1.519.51,1.35-.372-.5-2.592-1.669-4.947-4.4-5.74" fill="#333" stroke="#ff6b6b" stroke-width="1"/>
        <path id="Tracciato_21" data-name="Tracciato 21" d="M34.3,18.378a.7.7,0,0,0,0,1.4.7.7,0,0,0,0-1.4" fill="#333" stroke="#ff6b6b" stroke-width="1"/>
      </g>
    </g>
    <g id="Raggruppa_8" data-name="Raggruppa 8" transform="translate(714.722 27.586) rotate(30)">
      <g id="Raggruppa_7" data-name="Raggruppa 7" clip-path="url(#clip-path-4)">
        <path id="Tracciato_22" data-name="Tracciato 22" d="M5.75,11.588Q6.168,8.8,6.542,6c.12-.89-1.282-.881-1.4,0q-.35,2.608-.742,5.212c-.132.881,1.217,1.261,1.35.372" fill="#333" stroke="#3ba4ff" stroke-width="1"/>
        <path id="Tracciato_23" data-name="Tracciato 23" d="M6.248,4.118a.7.7,0,0,0,0-1.4.7.7,0,0,0,0,1.4" fill="#333" stroke="#3ba4ff" stroke-width="1"/>
        <path id="Tracciato_24" data-name="Tracciato 24" d="M16.095,47.622c.068-4.182.081-8.361-.008-12.545v0c16.292-1.55,12.592-23.594,8.6-34.54A.59.59,0,0,0,24.038,0a197.9,197.9,0,0,1-19.8.08.645.645,0,0,0-.1.016.646.646,0,0,0-.185.031l-.012,0A.572.572,0,0,0,3.531.6C1.98,8.244-1.106,17.034.891,24.881A13.685,13.685,0,0,0,12.053,34.959a.617.617,0,0,0-.022.118c.09,4.213.076,8.42.007,12.631-2.249.028-12.576.005-12.016,4.185.44,3.278,9.332,3.259,11.577,3.383a48.487,48.487,0,0,0,10.653-.623c1.422-.237,5.372-.912,5.837-2.73,1.038-4.059-9.489-4.263-11.994-4.3M4.767,1.5c6.252.23,12.51.291,18.757-.073a58.582,58.582,0,0,1,3.1,14.256.744.744,0,0,0-.231.057c-5.14,2.42-9.148,1.945-14.5.886a20.664,20.664,0,0,0-10.024.654c.367-5.32,1.821-10.588,2.9-15.78M1.788,20.96c-.031-.734-.023-1.467,0-2.2A20.35,20.35,0,0,1,9.56,17.669c2.254.192,4.4.985,6.629,1.328a18.108,18.108,0,0,0,10.52-1.875c.349,8.428-2.11,16.237-11.667,16.637C7.371,34.08,2.1,28.326,1.788,20.96M23.757,52.933c-3.764,1.136-8.249,1.16-12.158.943-2.489-.137-6.591-.04-8.821-1.36-2.351-1.391.809-2.368,2.293-2.711a32.813,32.813,0,0,1,6.948-.7c-.011.522-.009,1.044-.022,1.567a.7.7,0,0,0,1.4,0q.2-7.781.035-15.553.622.045,1.256.035.164,7.765-.035,15.518a.7.7,0,0,0,1.4,0c.014-.551.012-1.1.023-1.651a33.508,33.508,0,0,1,7.006.73c.584.135,2.339.371,2.716.9,1.108,1.549-1.132,2.005-2.041,2.28" fill="#333" stroke="#3ba4ff" stroke-width="1"/>
      </g>
    </g>
  </g>
</svg>